<?xml version="1.0" encoding="UTF-8"?>
<svg version="1.1" xmlns="http://www.w3.org/2000/svg" height="100%" viewBox="0 0 350 475">
    <g stroke="#32d1e3">

        <!--Bordas-->
        <path d="M0,0 L32,0 L32,6 L33,6 L33,7 L45,7 L45,26 L46,26 L46,27 L58,27 L58,28 L60,28 L60,29 L62,29 L62,30 L64,30 L64,31 L67,31 L67,32 L69,32 L69,33 L71,33 L71,34 L73,34 L73,35 L75,35 L75,36 L76,36 L76,37 L77,37 L77,38 L78,38 L78,39 L79,39 L79,40 L80,40 L80,41 L81,41 L81,42 L82,42 L82,43 L83,43 L83,45 L84,45 L84,46 L85,46 L85,47 L86,47 L86,48 L87,48 L87,49 L88,49 L88,50 L89,50 L89,51 L90,51 L90,52 L91,52 L91,53 L92,53 L92,54 L93,54 L93,55 L190,55 L190,216 L149,216 L149,193 L148,193 L148,192 L80,192 L80,193 L79,193 L79,207 L36,207 L36,208 L35,208 L35,238 L36,238 L36,239 L37,239 L37,240 L39,240 L39,241 L40,241 L40,242 L41,242 L41,243 L43,243 L43,244 L44,244 L44,245 L75,245 L75,246 L77,246 L77,247 L78,247 L78,248 L79,248 L79,249 L81,249 L81,250 L82,250 L82,251 L83,251 L83,252 L85,252 L85,253 L86,253 L86,254 L87,254 L87,255 L89,255 L89,256 L90,256 L90,257 L92,257 L92,258 L93,258 L93,259 L94,259 L94,260 L96,260 L96,261 L97,261 L97,262 L98,262 L98,263 L100,263 L100,264 L101,264 L101,265 L102,265 L102,266 L104,266 L104,275 L105,275 L105,276 L190,276 L190,442 L143,442 L143,443 L142,443 L142,450 L122,450 L122,401 L121,401 L121,400 L35,400 L35,401 L34,401 L34,405 L35,405 L35,406 L116,406 L116,450 L47,450 L47,433 L46,433 L46,432 L-11,432 L-11,433 L-12,433 L-12,450 L-145,450 L-145,449 L-146,449 L-146,448 L-147,448 L-147,447 L-149,447 L-149,446 L-150,446 L-150,445 L-151,445 L-151,444 L-152,444 L-152,314 L-80,314 L-80,313 L-79,313 L-79,276 L-41,276 L-41,275 L-40,275 L-40,245 L-7,245 L-7,244 L-6,244 L-6,243 L-5,243 L-5,242 L-4,242 L-4,241 L-3,241 L-3,240 L-2,240 L-2,239 L-1,239 L-1,238 L0,238 L0,237 L1,237 L1,208 L0,208 L0,207 L-44,207 L-44,190 L-45,190 L-45,189 L-108,189 L-108,190 L-109,190 L-109,220 L-140,220 L-140,35 L-98,35 L-98,52 L-97,52 L-97,53 L-41,53 L-41,52 L-40,52 L-40,24 L-17,24 L-17,23 L-16,23 L-16,7 L-1,7 L-1,6 L0,6 Z M2,1 L2,2 L1,2 L1,8 L-14,8 L-14,9 L-15,9 L-15,25 L-38,25 L-38,26 L-39,26 L-39,54 L-99,54 L-99,37 L-100,37 L-100,36 L-138,36 L-138,37 L-139,37 L-139,218 L-138,218 L-138,219 L-111,219 L-111,218 L-110,218 L-110,188 L-43,188 L-43,205 L-42,205 L-42,206 L2,206 L2,239 L1,239 L1,240 L0,240 L0,241 L-1,241 L-1,242 L-2,242 L-2,243 L-3,243 L-3,244 L-4,244 L-4,245 L-5,245 L-5,246 L-38,246 L-38,247 L-39,247 L-39,277 L-77,277 L-77,278 L-78,278 L-78,315 L-150,315 L-150,316 L-151,316 L-151,442 L-150,442 L-150,443 L-149,443 L-149,444 L-148,444 L-148,445 L-147,445 L-147,446 L-145,446 L-145,447 L-144,447 L-144,448 L-143,448 L-143,449 L-14,449 L-14,448 L-13,448 L-13,431 L48,431 L48,448 L49,448 L49,449 L114,449 L114,448 L115,448 L115,408 L114,408 L114,407 L33,407 L33,399 L123,399 L123,448 L124,448 L124,449 L140,449 L140,448 L141,448 L141,441 L188,441 L188,440 L189,440 L189,278 L188,278 L188,277 L103,277 L103,268 L102,268 L102,267 L100,267 L100,266 L99,266 L99,265 L98,265 L98,264 L96,264 L96,263 L95,263 L95,262 L94,262 L94,261 L92,261 L92,260 L91,260 L91,259 L90,259 L90,258 L88,258 L88,257 L87,257 L87,256 L85,256 L85,255 L84,255 L84,254 L83,254 L83,253 L81,253 L81,252 L80,252 L80,251 L79,251 L79,250 L77,250 L77,249 L76,249 L76,248 L75,248 L75,247 L73,247 L73,246 L42,246 L42,245 L41,245 L41,244 L39,244 L39,243 L38,243 L38,242 L37,242 L37,241 L35,241 L35,240 L34,240 L34,206 L77,206 L77,205 L78,205 L78,191 L150,191 L150,214 L151,214 L151,215 L188,215 L188,214 L189,214 L189,57 L188,57 L188,56 L91,56 L91,55 L90,55 L90,54 L89,54 L89,53 L88,53 L88,52 L87,52 L87,51 L86,51 L86,50 L85,50 L85,49 L84,49 L84,48 L83,48 L83,47 L82,47 L82,45 L81,45 L81,44 L80,44 L80,43 L79,43 L79,42 L78,42 L78,41 L77,41 L77,40 L76,40 L76,39 L75,39 L75,38 L74,38 L74,37 L73,37 L73,36 L71,36 L71,35 L69,35 L69,34 L67,34 L67,33 L65,33 L65,32 L62,32 L62,31 L60,31 L60,30 L58,30 L58,29 L56,29 L56,28 L44,28 L44,9 L43,9 L43,8 L31,8 L31,2 L30,2 L30,1 Z "
              transform="translate(152,0)"
        />

        <path d="M0,0 L32,0 L32,6 L33,6 L33,7 L45,7 L45,26 L46,26 L46,27 L58,27 L58,28 L60,28 L60,29 L62,29 L62,30 L64,30 L64,31 L67,31 L67,32 L69,32 L69,33 L71,33 L71,34 L73,34 L73,35 L75,35 L75,36 L76,36 L76,37 L77,37 L77,38 L78,38 L78,39 L79,39 L79,40 L80,40 L80,41 L81,41 L81,42 L82,42 L82,43 L83,43 L83,45 L84,45 L84,46 L85,46 L85,47 L86,47 L86,48 L87,48 L87,49 L88,49 L88,50 L89,50 L89,51 L90,51 L90,52 L91,52 L91,53 L92,53 L92,54 L93,54 L93,55 L190,55 L190,216 L149,216 L149,193 L148,193 L148,192 L80,192 L80,193 L79,193 L79,207 L36,207 L36,208 L35,208 L35,238 L36,238 L36,239 L37,239 L37,240 L39,240 L39,241 L40,241 L40,242 L41,242 L41,243 L43,243 L43,244 L44,244 L44,245 L75,245 L75,246 L77,246 L77,247 L78,247 L78,248 L79,248 L79,249 L81,249 L81,250 L82,250 L82,251 L83,251 L83,252 L85,252 L85,253 L86,253 L86,254 L87,254 L87,255 L89,255 L89,256 L90,256 L90,257 L92,257 L92,258 L93,258 L93,259 L94,259 L94,260 L96,260 L96,261 L97,261 L97,262 L98,262 L98,263 L100,263 L100,264 L101,264 L101,265 L102,265 L102,266 L104,266 L104,275 L105,275 L105,276 L190,276 L190,442 L143,442 L143,443 L142,443 L142,450 L122,450 L122,401 L121,401 L121,400 L35,400 L35,401 L34,401 L34,405 L35,405 L35,406 L116,406 L116,450 L47,450 L47,433 L46,433 L46,432 L-11,432 L-11,433 L-12,433 L-12,450 L-145,450 L-145,449 L-146,449 L-146,448 L-147,448 L-147,447 L-149,447 L-149,446 L-150,446 L-150,445 L-151,445 L-151,444 L-152,444 L-152,314 L-80,314 L-80,313 L-79,313 L-79,276 L-41,276 L-41,275 L-40,275 L-40,245 L-7,245 L-7,244 L-6,244 L-6,243 L-5,243 L-5,242 L-4,242 L-4,241 L-3,241 L-3,240 L-2,240 L-2,239 L-1,239 L-1,238 L0,238 L0,237 L1,237 L1,208 L0,208 L0,207 L-44,207 L-44,190 L-45,190 L-45,189 L-108,189 L-108,190 L-109,190 L-109,220 L-140,220 L-140,35 L-98,35 L-98,52 L-97,52 L-97,53 L-41,53 L-41,52 L-40,52 L-40,24 L-17,24 L-17,23 L-16,23 L-16,7 L-1,7 L-1,6 L0,6 Z M2,1 L2,2 L1,2 L1,8 L-14,8 L-14,9 L-15,9 L-15,25 L-38,25 L-38,26 L-39,26 L-39,54 L-99,54 L-99,37 L-100,37 L-100,36 L-138,36 L-138,37 L-139,37 L-139,218 L-138,218 L-138,219 L-111,219 L-111,218 L-110,218 L-110,188 L-43,188 L-43,205 L-42,205 L-42,206 L2,206 L2,239 L1,239 L1,240 L0,240 L0,241 L-1,241 L-1,242 L-2,242 L-2,243 L-3,243 L-3,244 L-4,244 L-4,245 L-5,245 L-5,246 L-38,246 L-38,247 L-39,247 L-39,277 L-77,277 L-77,278 L-78,278 L-78,315 L-150,315 L-150,316 L-151,316 L-151,442 L-150,442 L-150,443 L-149,443 L-149,444 L-148,444 L-148,445 L-147,445 L-147,446 L-145,446 L-145,447 L-144,447 L-144,448 L-143,448 L-143,449 L-14,449 L-14,448 L-13,448 L-13,431 L48,431 L48,448 L49,448 L49,449 L114,449 L114,448 L115,448 L115,408 L114,408 L114,407 L33,407 L33,399 L123,399 L123,448 L124,448 L124,449 L140,449 L140,448 L141,448 L141,441 L188,441 L188,440 L189,440 L189,278 L188,278 L188,277 L103,277 L103,268 L102,268 L102,267 L100,267 L100,266 L99,266 L99,265 L98,265 L98,264 L96,264 L96,263 L95,263 L95,262 L94,262 L94,261 L92,261 L92,260 L91,260 L91,259 L90,259 L90,258 L88,258 L88,257 L87,257 L87,256 L85,256 L85,255 L84,255 L84,254 L83,254 L83,253 L81,253 L81,252 L80,252 L80,251 L79,251 L79,250 L77,250 L77,249 L76,249 L76,248 L75,248 L75,247 L73,247 L73,246 L42,246 L42,245 L41,245 L41,244 L39,244 L39,243 L38,243 L38,242 L37,242 L37,241 L35,241 L35,240 L34,240 L34,206 L77,206 L77,205 L78,205 L78,191 L150,191 L150,214 L151,214 L151,215 L188,215 L188,214 L189,214 L189,57 L188,57 L188,56 L91,56 L91,55 L90,55 L90,54 L89,54 L89,53 L88,53 L88,52 L87,52 L87,51 L86,51 L86,50 L85,50 L85,49 L84,49 L84,48 L83,48 L83,47 L82,47 L82,45 L81,45 L81,44 L80,44 L80,43 L79,43 L79,42 L78,42 L78,41 L77,41 L77,40 L76,40 L76,39 L75,39 L75,38 L74,38 L74,37 L73,37 L73,36 L71,36 L71,35 L69,35 L69,34 L67,34 L67,33 L65,33 L65,32 L62,32 L62,31 L60,31 L60,30 L58,30 L58,29 L56,29 L56,28 L44,28 L44,9 L43,9 L43,8 L31,8 L31,2 L30,2 L30,1 Z "
              transform="translate(152,0)"
        />

        <!--Bloco cima direita-->
        <path d="M0,0 L76,0 L76,78 L77,78 L77,79 L100,79 L100,125 L94,125 L94,86 L93,86 L93,85 L77,85 L77,86 L76,86 L76,100 L-6,100 L-6,101 L-7,101 L-7,119 L-26,119 L-26,95 L-27,95 L-27,94 L-35,94 L-35,79 L-1,79 L-1,78 L0,78 L0,56 L21,56 L21,80 L22,80 L22,81 L57,81 L57,80 L58,80 L58,19 L57,19 L57,18 L22,18 L22,19 L21,19 L21,41 L0,41 Z M2,1 L2,2 L1,2 L1,39 L2,39 L2,40 L19,40 L19,39 L20,39 L20,17 L59,17 L59,82 L20,82 L20,58 L19,58 L19,57 L2,57 L2,58 L1,58 L1,80 L-33,80 L-33,81 L-34,81 L-34,92 L-33,92 L-33,93 L-25,93 L-25,117 L-24,117 L-24,118 L-9,118 L-9,117 L-8,117 L-8,99 L74,99 L74,98 L75,98 L75,84 L95,84 L95,123 L96,123 L96,124 L98,124 L98,123 L99,123 L99,81 L98,81 L98,80 L75,80 L75,2 L74,2 L74,1 Z "
              transform="translate(224,72)"
        />

        <!--Bloco cima esquerda-->
        <path d="M0,0 L75,0 L75,42 L55,42 L55,21 L54,21 L54,20 L17,20 L17,21 L16,21 L16,80 L17,80 L17,81 L54,81 L54,80 L55,80 L55,57 L75,57 L75,79 L76,79 L76,80 L111,80 L111,95 L103,95 L103,96 L102,96 L102,120 L84,120 L84,100 L83,100 L83,99 L0,99 Z M2,1 L2,2 L1,2 L1,97 L2,97 L2,98 L85,98 L85,118 L86,118 L86,119 L100,119 L100,118 L101,118 L101,94 L109,94 L109,93 L110,93 L110,82 L109,82 L109,81 L74,81 L74,59 L73,59 L73,58 L57,58 L57,59 L56,59 L56,82 L15,82 L15,19 L56,19 L56,40 L57,40 L57,41 L73,41 L73,40 L74,40 L74,2 L73,2 L73,1 Z "
              transform="translate(41,71)"
        />

        <!--Bloco baixo direita fora -->
        <path d="M0,0 L52,0 L52,9 L15,9 L15,10 L14,10 L14,40 L7,40 L7,41 L6,41 L6,45 L7,45 L7,46 L12,46 L12,65 L8,65 L8,66 L7,66 L7,75 L-1,75 L-1,76 L-2,76 L-2,80 L-83,80 L-83,33 L-74,33 L-74,32 L-73,32 L-73,27 L-41,27 L-41,32 L-40,32 L-40,33 L-35,33 L-35,67 L-34,67 L-34,68 L-1,68 L-1,67 L0,67 Z M2,1 L2,2 L1,2 L1,69 L-36,69 L-36,35 L-37,35 L-37,34 L-42,34 L-42,29 L-43,29 L-43,28 L-71,28 L-71,29 L-72,29 L-72,34 L-81,34 L-81,35 L-82,35 L-82,78 L-81,78 L-81,79 L-4,79 L-4,78 L-3,78 L-3,74 L5,74 L5,73 L6,73 L6,64 L10,64 L10,63 L11,63 L11,48 L10,48 L10,47 L5,47 L5,39 L12,39 L12,38 L13,38 L13,8 L50,8 L50,7 L51,7 L51,2 L50,2 L50,1 Z "
              transform="translate(269,295)"
        />

        <!--Bloco baixo esquerda fora -->
        <path d="M0,0 L32,0 L32,5 L33,5 L33,6 L40,6 L40,53 L-48,53 L-48,15 L-40,15 L-40,41 L-39,41 L-39,42 L-8,42 L-8,41 L-7,41 L-7,5 L-1,5 L-1,4 L0,4 Z M2,1 L2,2 L1,2 L1,6 L-5,6 L-5,7 L-6,7 L-6,43 L-41,43 L-41,17 L-42,17 L-42,16 L-46,16 L-46,17 L-47,17 L-47,51 L-46,51 L-46,52 L38,52 L38,51 L39,51 L39,8 L38,8 L38,7 L31,7 L31,2 L30,2 L30,1 Z "
              transform="translate(113,322)"
        />

        <!--Bloco baixo esquerda dentro -->
        <path d="M0,0 L33,0 L33,33 L0,33 Z M2,1 L2,2 L1,2 L1,31 L2,31 L2,32 L31,32 L31,31 L32,31 L32,2 L31,2 L31,1 Z "
              transform="translate(193,335)"
        />

        <!--Bloco baixo esquerda linha -->
        <path d="M0,0 L8,0 L8,13 L9,13 L9,14 L137,14 L137,22 L0,22 Z M2,1 L2,2 L1,2 L1,20 L2,20 L2,21 L135,21 L135,20 L136,20 L136,16 L135,16 L135,15 L7,15 L7,2 L6,2 L6,1 Z "
              transform="translate(18,385)"
        />

        <!--        Ponto 1-->
        <circle id="p1" cx="20" cy="20" r="15" transform="translate(150,395)" fill="#32d1e3"/>
        <text x="170" y="420" text-anchor="middle" stroke="#000000" stroke-width="2px" >1</text>

        <!--        Ponto 2-->
        <circle id="p2" cx="20" cy="20" r="15" transform="translate(10,325)" fill="#32d1e3"/>
        <text x="30" y="350" text-anchor="middle" stroke="#000000" stroke-width="2px" >2</text>

        <!--        Ponto 3-->
        <circle id="p3" cx="20" cy="20" r="15" transform="translate(150,355)" fill="#32d1e3"/>
        <text x="170" y="380" text-anchor="middle" stroke="#000000" stroke-width="2px" >3</text>

        <!--        Ponto 4-->
        <circle id="p4" cx="20" cy="20" r="15" transform="translate(290,325)" fill="#32d1e3"/>
        <text x="310" y="350" text-anchor="middle" stroke="#000000" stroke-width="2px" >4</text>

        <!--        Ponto 5-->
        <circle id="p5" cx="20" cy="20" r="15" transform="translate(150,255)" fill="#32d1e3"/>
        <text x="170" y="280" text-anchor="middle" stroke="#000000" stroke-width="2px" >5</text>

        <!--        Ponto 6-->
        <circle id="p6" cx="20" cy="20" r="15" transform="translate(150,100)" fill="#32d1e3"/>
        <text x="170" y="125" text-anchor="middle" stroke="#000000" stroke-width="2px" >6</text>

        <!--        Ponto 7-->
        <circle id="p7" cx="20" cy="20" r="15" transform="translate(7,100)" fill="#32d1e3"/>
        <text x="26" y="125" text-anchor="middle" stroke="#000000" stroke-width="2px" >7</text>

        <!--        Ponto 8-->
        <circle id="p8" cx="20" cy="20" r="15" transform="translate(300,100)" fill="#32d1e3"/>
        <text x="320" y="125" text-anchor="middle" stroke="#000000" stroke-width="2px" >7</text>

        <!--        Portal 1-->
        <polygon points="140,20 155,50 125,50" fill="#E21D6F" stroke="#E21D6F" transform="translate(30,415)" />
        <text x="170" y="460" text-anchor="middle" stroke="#000000" stroke-width="2px" >1</text>

        <!--        Portal 2-->
        <polygon points="140,20 155,50 125,50" fill="#E21D6F" stroke="#E21D6F" transform="translate(30,-15)" />
        <text x="170" y="30" text-anchor="middle" stroke="#000000" stroke-width="2px" >2</text>

    </g>
</svg>
