<?xml version="1.0" encoding="UTF-8"?>
<svg version="1.1" xmlns="http://www.w3.org/2000/svg" height="100%" viewBox="0 0 350 450">
    <g stroke="#32d1e3">

        <path
                d="M0,0 L29,0 L29,1 L31,1 L31,2 L42,2 L42,7 L41,7 L41,9 L40,9 L40,12 L39,12 L39,17 L40,17 L40,21 L41,21 L41,22 L42,22 L42,24 L43,24 L43,25 L44,25 L44,26 L45,26 L45,27 L46,27 L46,28 L48,28 L48,29 L49,29 L49,30 L53,30 L53,31 L58,31 L58,30 L60,30 L60,29 L63,29 L63,28 L65,28 L65,27 L141,27 L141,70 L111,70 L111,74 L141,74 L141,288 L99,288 L99,296 L98,296 L98,297 L97,297 L97,299 L96,299 L96,301 L95,301 L95,304 L94,304 L94,309 L95,309 L95,313 L96,313 L96,314 L97,314 L97,319 L93,319 L93,351 L60,351 L60,350 L57,350 L57,349 L55,349 L55,348 L49,348 L49,349 L47,349 L47,350 L45,350 L45,351 L25,351 L25,357 L33,357 L33,396 L-3,396 L-3,381 L-15,381 L-15,382 L-17,382 L-17,383 L-47,383 L-47,382 L-49,382 L-49,381 L-60,381 L-60,396 L-97,396 L-97,357 L-87,357 L-87,351 L-110,351 L-110,350 L-113,350 L-113,349 L-115,349 L-115,348 L-120,348 L-120,349 L-122,349 L-122,350 L-125,350 L-125,351 L-168,351 L-168,299 L-161,299 L-161,293 L-176,293 L-176,292 L-178,292 L-178,291 L-180,291 L-180,290 L-183,290 L-183,289 L-188,289 L-188,290 L-191,290 L-191,291 L-193,291 L-193,292 L-195,292 L-195,293 L-205,293 L-205,126 L-154,126 L-154,125 L-153,125 L-153,123 L-152,123 L-152,122 L-121,122 L-121,118 L-154,118 L-154,117 L-155,117 L-155,116 L-156,116 L-156,115 L-162,115 L-162,89 L-168,89 L-168,114 L-205,114 L-205,74 L-163,74 L-163,40 L-161,40 L-161,39 L-159,39 L-159,38 L-158,38 L-158,37 L-157,37 L-157,35 L-156,35 L-156,32 L-155,32 L-155,29 L-154,29 L-154,27 L-134,27 L-134,30 L-133,30 L-133,31 L-132,31 L-132,32 L-130,32 L-130,33 L-128,33 L-128,34 L-127,34 L-127,35 L-124,35 L-124,36 L-115,36 L-115,35 L-113,35 L-113,34 L-111,34 L-111,33 L-109,33 L-109,32 L-108,32 L-108,31 L-107,31 L-107,30 L-106,30 L-106,28 L-105,28 L-105,26 L-104,26 L-104,22 L-103,22 L-103,18 L-104,18 L-104,14 L-105,14 L-105,13 L-106,13 L-106,5 L-92,5 L-92,3 L-52,3 L-52,19 L-39,19 L-39,17 L-25,17 L-25,19 L-11,19 L-11,4 L-1,4 L-1,1 L0,1 Z M1,1 L1,2 L0,2 L0,5 L-10,5 L-10,20 L-26,20 L-26,18 L-38,18 L-38,20 L-53,20 L-53,4 L-91,4 L-91,6 L-105,6 L-105,12 L-104,12 L-104,13 L-103,13 L-103,17 L-102,17 L-102,23 L-103,23 L-103,27 L-104,27 L-104,29 L-105,29 L-105,31 L-106,31 L-106,32 L-107,32 L-107,33 L-108,33 L-108,34 L-110,34 L-110,35 L-112,35 L-112,36 L-114,36 L-114,37 L-125,37 L-125,36 L-128,36 L-128,35 L-129,35 L-129,34 L-131,34 L-131,33 L-133,33 L-133,32 L-134,32 L-134,31 L-135,31 L-135,28 L-153,28 L-153,30 L-154,30 L-154,33 L-155,33 L-155,36 L-156,36 L-156,38 L-157,38 L-157,39 L-158,39 L-158,40 L-160,40 L-160,41 L-162,41 L-162,75 L-204,75 L-204,113 L-169,113 L-169,88 L-161,88 L-161,114 L-155,114 L-155,115 L-154,115 L-154,116 L-153,116 L-153,117 L-120,117 L-120,123 L-151,123 L-151,124 L-152,124 L-152,126 L-153,126 L-153,127 L-204,127 L-204,292 L-196,292 L-196,291 L-194,291 L-194,290 L-192,290 L-192,289 L-189,289 L-189,288 L-182,288 L-182,289 L-179,289 L-179,290 L-177,290 L-177,291 L-175,291 L-175,292 L-160,292 L-160,300 L-167,300 L-167,350 L-126,350 L-126,349 L-123,349 L-123,348 L-121,348 L-121,347 L-114,347 L-114,348 L-112,348 L-112,349 L-109,349 L-109,350 L-86,350 L-86,358 L-96,358 L-96,395 L-61,395 L-61,380 L-48,380 L-48,381 L-46,381 L-46,382 L-18,382 L-18,381 L-16,381 L-16,380 L-2,380 L-2,395 L32,395 L32,358 L24,358 L24,350 L44,350 L44,349 L46,349 L46,348 L48,348 L48,347 L56,347 L56,348 L58,348 L58,349 L61,349 L61,350 L92,350 L92,318 L96,318 L96,315 L95,315 L95,314 L94,314 L94,310 L93,310 L93,303 L94,303 L94,300 L95,300 L95,298 L96,298 L96,296 L97,296 L97,295 L98,295 L98,287 L140,287 L140,75 L110,75 L110,69 L140,69 L140,28 L66,28 L66,29 L64,29 L64,30 L61,30 L61,31 L59,31 L59,32 L52,32 L52,31 L48,31 L48,30 L47,30 L47,29 L45,29 L45,28 L44,28 L44,27 L43,27 L43,26 L42,26 L42,25 L41,25 L41,23 L40,23 L40,22 L39,22 L39,18 L38,18 L38,11 L39,11 L39,8 L40,8 L40,6 L41,6 L41,3 L30,3 L30,2 L28,2 L28,1 Z "
                transform="translate(206,1)"
        />
        <path
                d="M0,0 L46,0 L46,50 L94,50 L94,77 L46,77 L46,100 L62,100 L62,121 L46,121 L46,155 L66,155 L66,171 L46,171 L46,192 L62,192 L62,212 L48,212 L48,234 L-5,234 L-5,226 L37,226 L37,91 L-48,91 L-48,84 L37,84 L37,33 L-4,33 L-4,27 L37,27 L37,8 L0,8 Z M1,1 L1,7 L38,7 L38,28 L-3,28 L-3,32 L38,32 L38,85 L-47,85 L-47,90 L38,90 L38,227 L-4,227 L-4,233 L47,233 L47,211 L61,211 L61,193 L45,193 L45,170 L65,170 L65,156 L45,156 L45,120 L61,120 L61,101 L45,101 L45,76 L93,76 L93,51 L45,51 L45,1 Z "
                transform="translate(71,67)"
        />
        <path
                d="M0,0 L35,0 L35,3 L65,3 L65,9 L11,9 L11,155 L85,155 L85,199 L48,199 L48,230 L1,230 L1,212 L-15,212 L-15,192 L1,192 L1,171 L-18,171 L-18,155 L1,155 L1,121 L-15,121 L-15,101 L1,101 L1,77 L-46,77 L-46,50 L0,50 Z M1,1 L1,51 L-45,51 L-45,76 L2,76 L2,102 L-14,102 L-14,120 L2,120 L2,156 L-17,156 L-17,170 L2,170 L2,193 L-14,193 L-14,211 L2,211 L2,229 L47,229 L47,198 L84,198 L84,156 L10,156 L10,8 L64,8 L64,4 L34,4 L34,1 Z "
                transform="translate(230,67)"
        />
        <path
                d="M0,0 L167,0 L167,8 L0,8 Z M1,1 L1,7 L166,7 L166,1 Z "
                transform="translate(87,326)"
        />
        <path
                d="M0,0 L35,0 L35,126 L0,126 Z M1,1 L1,125 L34,125 L34,1 Z "
                transform="translate(158,167)"
        />
        <path
                d="M0,0 L12,0 L12,4 L18,4 L18,70 L12,70 L12,74 L0,74 L0,70 L-6,70 L-6,4 L0,4 Z M1,1 L1,5 L-5,5 L-5,69 L1,69 L1,73 L11,73 L11,69 L17,69 L17,5 L11,5 L11,1 Z "
                transform="translate(50,186)"
        />
        <path
                d="M0,0 L8,0 L8,26 L-40,26 L-40,19 L0,19 Z M1,1 L1,20 L-39,20 L-39,25 L7,25 L7,1 Z "
                transform="translate(306,131)"
        />
        <path
                d="M0,0 L43,0 L43,7 L7,7 L7,28 L0,28 Z M1,1 L1,27 L6,27 L6,6 L42,6 L42,1 Z "
                transform="translate(276,98)"
        />
        <path
                d="M0,0 L22,0 L22,1 L25,1 L25,2 L27,2 L27,23 L24,23 L24,24 L21,24 L21,25 L1,25 L1,24 L-2,24 L-2,23 L-5,23 L-5,2 L-3,2 L-3,1 L0,1 Z M3,1 L3,2 L0,2 L0,3 L-3,3 L-3,4 L-4,4 L-4,22 L-1,22 L-1,23 L2,23 L2,24 L20,24 L20,23 L23,23 L23,22 L26,22 L26,4 L25,4 L25,3 L22,3 L22,2 L19,2 L19,1 Z "
                transform="translate(283,177)"
        />

        <!--        Ponto 1-->
        <circle id="p1" cx="20" cy="20" r="15" transform="translate(155,340)" fill="#32d1e3"/>
        <text x="175" y="365" text-anchor="middle" stroke="#000000" stroke-width="2px" >1</text>

        <!--        Ponto 2-->
        <circle id="p2" cx="20" cy="20" r="15" transform="translate(36,200)" fill="#32d1e3"/>
        <text x="56" y="225" text-anchor="middle" stroke="#000000" stroke-width="2px" >2</text>

        <!--        Ponto 3-->
        <circle id="p3" cx="20" cy="20" r="15" transform="translate(155,210)" fill="#32d1e3"/>
        <text x="176" y="235" text-anchor="middle" stroke="#000000" stroke-width="2px" >3</text>

        <!--        Ponto 4-->
        <circle id="p4" cx="20" cy="20" r="15" transform="translate(240,175)" fill="#32d1e3"/>
        <text x="260" y="200" text-anchor="middle" stroke="#000000" stroke-width="2px" >4</text>

        <!--        Ponto 5-->
        <circle id="p5" cx="20" cy="20" r="15" transform="translate(37,65)" fill="#32d1e3"/>
        <text x="56" y="90" text-anchor="middle" stroke="#000000" stroke-width="2px" >5</text>

        <!--        Ponto 6-->
        <circle id="p6" cx="20" cy="20" r="15" transform="translate(155,45)" fill="#32d1e3"/>
        <text x="175" y="70" text-anchor="middle" stroke="#000000" stroke-width="2px" >6</text>

        <!--        Ponto 7-->
        <circle id="p7" cx="20" cy="20" r="15" transform="translate(285,30)" fill="#32d1e3"/>
        <text x="305" y="55" text-anchor="middle" stroke="#000000" stroke-width="2px" >7</text>

        <!--        Portal 1-->
        <polygon points="140,20 155,50 125,50" fill="#E21D6F" stroke="#E21D6F" transform="translate(35,365)" />
        <text x="175" y="410" text-anchor="middle" stroke="#000000" stroke-width="2px" >1</text>

        <!--        Portal 2-->
        <polygon points="140,20 155,50 125,50" fill="#E21D6F" stroke="#E21D6F" transform="translate(-10,-15)" />
        <text x="130" y="30" text-anchor="middle" stroke="#000000" stroke-width="2px" >2</text>

        <!--        Portal 3-->
        <polygon points="140,20 155,50 125,50" fill="#E21D6F" stroke="#E21D6F" transform="translate(80,-20)" />
        <text x="220" y="25" text-anchor="middle" stroke="#000000" stroke-width="2px" >3</text>
    </g>
</svg>
